<svg width="215" height="64" viewBox="0 0 215 64" fill="none" xmlns="http://www.w3.org/2000/svg">
<path d="M184.594 57.1992H192.248V63.5749H184.594V57.1992Z" fill="#121723"/>
<path d="M160.993 63.5746H152.701L163.97 33.8213H172.475L183.745 63.5746H175.452L173.539 58.2615H162.907L160.993 63.5746ZM164.821 52.7359H171.625L168.223 42.7473L164.821 52.7359Z" fill="#121723"/>
<path d="M148.669 33.3965C149.378 33.3965 150.653 33.5382 152.496 33.8215V39.5597H150.795C150.37 39.5597 149.987 39.7014 149.647 39.9847C149.307 40.2397 149.052 40.5231 148.881 40.8348L144.841 48.4857L153.134 63.5749H145.054L138.463 51.461H134.635V63.5749H126.98V33.8215H134.635V45.5103H138.463L142.715 37.4344C143.339 36.2443 144.104 35.2809 145.012 34.5441C145.947 33.779 147.166 33.3965 148.669 33.3965Z" fill="#121723"/>
<path d="M114.22 53.7985C110.818 54.0819 107.6 54.2236 104.566 54.2236C101.561 54.2236 99.4063 53.5718 98.1022 52.2683C96.7981 50.9649 96.146 48.9246 96.146 46.1477V33.8213H103.801V46.1477C103.801 46.7994 103.985 47.3236 104.354 47.7203C104.75 48.0887 105.275 48.2729 105.927 48.2729C108.252 48.2729 111.016 48.1312 114.22 47.8479V33.8213H121.874V63.5746H114.22V53.7985Z" fill="#121723"/>
<path d="M87.1953 41.8974C87.1953 40.1972 86.3448 39.3471 84.6438 39.3471H77.4143C75.7133 39.3471 74.8627 40.1972 74.8627 41.8974V55.499C74.8627 57.1991 75.7133 58.0492 77.4143 58.0492H84.6438C86.3448 58.0492 87.1953 57.1991 87.1953 55.499V41.8974ZM94.8501 55.499C94.8501 58.4743 94.1696 60.642 92.8088 62.0022C91.4763 63.334 89.3216 63.9999 86.3448 63.9999H75.7133C72.7364 63.9999 70.5676 63.334 69.2067 62.0022C67.8743 60.642 67.208 58.4743 67.208 55.499V41.8974C67.208 38.9221 67.8743 36.7685 69.2067 35.4367C70.5676 34.0766 72.7364 33.3965 75.7133 33.3965H86.3448C89.3216 33.3965 91.4763 34.0766 92.8088 35.4367C94.1696 36.7685 94.8501 38.9221 94.8501 41.8974V55.499Z" fill="#121723"/>
<path d="M58.2722 63.5746H50.6175V39.772H41.687V33.8213H67.2028V39.772H58.2722V63.5746Z" fill="#121723"/>
<path d="M25.941 63.5746H18.2863V45.2976L8.07998 63.5746H0V33.8213H7.65472V52.0983L17.861 33.8213H25.941V63.5746Z" fill="#121723"/>
<path d="M183.531 18.0647V12.5391H215V18.0647H183.531Z" fill="#121723"/>
<path d="M150.35 10.6259H160.131C163.108 10.6259 165.263 11.306 166.595 12.6662C167.956 13.998 168.636 16.1516 168.636 19.1269V21.6772C168.636 24.6525 167.956 26.8203 166.595 28.1804C165.263 29.5122 163.108 30.1781 160.131 30.1781H142.695V0.424805H150.35V10.6259ZM179.693 30.1781H172.038V0.424805H179.693V30.1781ZM160.982 19.1269C160.982 17.4267 160.131 16.5766 158.43 16.5766H150.35V24.2275H158.43C160.131 24.2275 160.982 23.3774 160.982 21.6772V19.1269Z" fill="#121723"/>
<path d="M139.288 29.7531C132.966 30.3198 127.721 30.6032 123.554 30.6032C120.775 30.6032 118.734 29.9514 117.43 28.648C116.126 27.3445 115.474 25.3043 115.474 22.5273V8.92576C115.474 5.95042 116.14 3.79685 117.472 2.46503C118.833 1.10488 121.002 0.424805 123.979 0.424805H139.288V6.37547H125.68C123.979 6.37547 123.128 7.22557 123.128 8.92576V22.5273C123.128 23.179 123.313 23.7032 123.681 24.0999C124.078 24.4683 124.574 24.6525 125.17 24.6525C125.765 24.6525 126.417 24.6525 127.126 24.6525C127.835 24.6242 128.572 24.5958 129.337 24.5675C130.103 24.5392 130.868 24.5108 131.634 24.4825C132.427 24.4542 133.434 24.3975 134.653 24.3125C135.9 24.2275 137.446 24.1283 139.288 24.0149V29.7531Z" fill="#121723"/>
<path d="M112.917 29.7531C106.595 30.3198 101.35 30.6032 97.1825 30.6032C94.4041 30.6032 92.3629 29.9514 91.0587 28.648C89.7546 27.3445 89.1025 25.3043 89.1025 22.5273V8.92576C89.1025 5.95042 89.7688 3.79685 91.1013 2.46503C92.4621 1.10488 94.631 0.424805 97.6078 0.424805H112.917V6.37547H99.3088C97.6078 6.37547 96.7573 7.22557 96.7573 8.92576V22.5273C96.7573 23.179 96.9415 23.7032 97.3101 24.0999C97.707 24.4683 98.2031 24.6525 98.7985 24.6525C99.3939 24.6525 100.046 24.6525 100.755 24.6525C101.464 24.6242 102.201 24.5958 102.966 24.5675C103.732 24.5392 104.497 24.5108 105.263 24.4825C106.056 24.4542 107.063 24.3975 108.282 24.3125C109.529 24.2275 111.074 24.1283 112.917 24.0149V29.7531Z" fill="#121723"/>
<path d="M78.0254 8.50095C78.0254 6.80076 77.1749 5.95066 75.4738 5.95066H68.2444C66.5433 5.95066 65.6928 6.80076 65.6928 8.50095V22.1025C65.6928 23.8027 66.5433 24.6528 68.2444 24.6528H75.4738C77.1749 24.6528 78.0254 23.8027 78.0254 22.1025V8.50095ZM85.6801 22.1025C85.6801 25.0778 84.9997 27.2455 83.6389 28.6057C82.3064 29.9375 80.1517 30.6034 77.1749 30.6034H66.5433C63.5665 30.6034 61.3977 29.9375 60.0368 28.6057C58.7043 27.2455 58.0381 25.0778 58.0381 22.1025V8.50095C58.0381 5.52562 58.7043 3.37204 60.0368 2.04023C61.3977 0.680076 63.5665 0 66.5433 0H77.1749C80.1517 0 82.3064 0.680076 83.6389 2.04023C84.9997 3.37204 85.6801 5.52562 85.6801 8.50095V22.1025Z" fill="#121723"/>
<path d="M28.6968 0.424805H46.5578C49.5346 0.424805 51.6893 1.10488 53.0218 2.46503C54.3826 3.79685 55.063 5.95042 55.063 8.92576V13.1762C55.063 16.1516 54.3826 18.3193 53.0218 19.6795C51.6893 21.0113 49.5346 21.6772 46.5578 21.6772H36.3515V30.1781H28.6968V0.424805ZM47.4083 8.92576C47.4083 7.22557 46.5578 6.37547 44.8567 6.37547H36.3515V15.7265H44.8567C46.5578 15.7265 47.4083 14.8764 47.4083 13.1762V8.92576Z" fill="#121723"/>
<path d="M21.6884 0C22.3971 0 23.6729 0.141682 25.5157 0.425047V6.16319H23.8147C23.3894 6.16319 23.0067 6.30487 22.6665 6.58824C22.3263 6.84327 22.0711 7.12663 21.901 7.43833L17.861 15.0892L26.1536 30.1784H18.0736L11.4821 18.0645H7.65472V30.1784H0V0.425047H7.65472V12.1139H11.4821L15.7347 4.03795C16.3584 2.84782 17.1239 1.88438 18.0311 1.14763C18.9667 0.382543 20.1858 0 21.6884 0Z" fill="#121723"/>
</svg>
